<svg xmlns="http://www.w3.org/2000/svg" xmlns:xlink="http://www.w3.org/1999/xlink" version="1.1" x="0px" y="0px" viewBox="0 0 100 100" enable-background="new 0 0 100 100" xml:space="preserve"><g><path d="M67.71,42.631c-0.001-9.565-7.753-17.317-17.318-17.318h-0.784c-9.565,0.001-17.317,7.753-17.318,17.318V57.35   c0.001,9.565,7.753,17.316,17.318,17.317h0.784c9.565-0.001,17.317-7.753,17.318-17.317V42.631z M64.806,57.35   c-0.001,3.985-1.611,7.579-4.222,10.192c-2.613,2.611-6.208,4.221-10.193,4.222h-0.784c-3.985-0.001-7.58-1.611-10.193-4.222   c-2.611-2.613-4.221-6.208-4.222-10.192V42.631c0.001-3.985,1.611-7.58,4.222-10.193c2.613-2.611,6.208-4.221,10.193-4.222h0.784   c3.985,0.001,7.579,1.611,10.193,4.222c2.611,2.613,4.221,6.208,4.222,10.193V57.35z"/><path d="M49.977,39.903c-0.802,0-1.452,0.65-1.452,1.452v4.258c0,0.802,0.65,1.452,1.452,1.452c0.802,0,1.452-0.65,1.452-1.452   v-4.258C51.429,40.553,50.779,39.903,49.977,39.903z"/><path d="M49.093,94.682c0.53,0.424,1.283,0.424,1.814,0l7.258-5.806c0.626-0.501,0.727-1.414,0.227-2.04   c-0.501-0.626-1.414-0.727-2.04-0.227l0,0L50,91.689l-6.351-5.081c-0.626-0.501-1.54-0.399-2.04,0.227   c-0.501,0.626-0.399,1.539,0.227,2.04L49.093,94.682z"/><path d="M56.351,13.392c0.626,0.501,1.539,0.399,2.04-0.227c0.501-0.626,0.399-1.539-0.227-2.04l-7.258-5.807   c-0.531-0.425-1.283-0.425-1.814,0l-7.258,5.806c-0.626,0.501-0.728,1.414-0.227,2.04c0.501,0.626,1.414,0.727,2.04,0.227l0,0   L50,8.311L56.351,13.392z"/></g></svg>
